<svg width="30" height="25" viewBox="0 0 30 25" fill="none" xmlns="http://www.w3.org/2000/svg">
<path d="M12.1194 9.14797C12.5109 8.76466 13.1458 8.76466 13.5374 9.14797C14.408 10.0002 15.5339 11.4513 15.8764 13.004C16.0533 13.8057 16.0331 14.6955 15.5876 15.5311C15.1413 16.3682 14.3386 17.0191 13.2102 17.4739C12.6981 17.6803 12.1121 17.4413 11.9012 16.94C11.6904 16.4388 11.9345 15.8651 12.4466 15.6587C13.2645 15.329 13.6377 14.9456 13.8097 14.6228C13.9826 14.2986 14.0232 13.9031 13.9162 13.4184C13.6911 12.3981 12.8707 11.2716 12.1194 10.5361C11.7278 10.1528 11.7278 9.53129 12.1194 9.14797Z" fill="black"/>
<path d="M22.848 12.7434C23.3784 12.5876 23.6794 12.0405 23.5203 11.5212C23.3612 11.002 22.8022 10.7074 22.2717 10.8631C21.619 11.0548 20.7405 11.5374 20.16 12.4089C19.5453 13.3318 19.3462 14.5698 19.9002 16.0612C20.0895 16.5706 20.6648 16.8335 21.1852 16.6482C21.7057 16.463 21.9741 15.8998 21.7849 15.3903C21.423 14.4161 21.6055 13.833 21.8399 13.4811C22.1086 13.0777 22.5466 12.8319 22.848 12.7434Z" fill="black"/>
<path fill-rule="evenodd" clip-rule="evenodd" d="M17.3751 0.227166C17.9105 -0.0495942 18.545 -0.0747465 19.1015 0.158726L26.3381 3.19466C26.7741 3.37756 27.1297 3.70581 27.3418 4.1211L29.7883 8.9107C30.1007 9.52238 30.0654 10.2491 29.6952 10.8291L26.644 15.6079C26.9384 15.773 27.1965 16.0166 27.3838 16.3375L28.4358 18.1396C28.9321 18.9899 28.7124 20.0681 27.9208 20.6669L22.8126 24.5309C22.2033 24.9917 21.3782 25.0704 20.6895 24.7333L16.0488 22.462L12.6649 24.6703C12.1307 25.0189 11.4582 25.0961 10.856 24.8778L4.02116 22.3998C3.49378 22.2086 3.07265 21.8094 2.86047 21.2996L0.148309 14.783C-0.174531 14.0073 0.0409799 13.1165 0.684934 12.565L4.31372 9.4568L3.63591 5.03348C3.51546 4.24745 3.89111 3.46788 4.58736 3.05895L9.13039 0.390674C9.85733 -0.0362823 10.78 0.0303368 11.4351 0.557079L13.5097 2.22525L17.3751 0.227166ZM5.61914 4.74228L7.23695 15.3C7.3191 15.8361 6.94173 16.3359 6.39408 16.4163C5.84642 16.4967 5.33587 16.1273 5.25372 15.5912L4.66705 11.7626L2.00551 14.0423L4.71767 20.5589L11.5525 23.0369L17.1379 19.3919C17.5987 19.0912 18.2212 19.2131 18.5284 19.6641C18.8356 20.1152 18.7111 20.7246 18.2503 21.0253L17.9707 21.2078L21.5864 22.9775L26.6946 19.1136L25.6426 17.3115L24.2528 19.3522L22.5682 18.2875L27.9946 9.78862L25.5481 4.99902L18.3115 1.96308L15.1902 3.57653L18.903 6.56196C19.3309 6.90605 19.3929 7.52456 19.0414 7.94345C18.6899 8.36234 18.058 8.42298 17.6301 8.07889L10.1622 2.074L5.61914 4.74228Z" fill="black"/>
</svg>
